<svg width="24" height="25" viewBox="0 0 24 25" fill="none" xmlns="http://www.w3.org/2000/svg">
<path d="M6.50166 5.46035C7.87142 5.46035 8.98183 4.34994 8.98183 2.98017C8.98183 1.61041 7.87142 0.5 6.50166 0.5C5.1319 0.5 4.02148 1.61041 4.02148 2.98017C4.02148 4.34994 5.1319 5.46035 6.50166 5.46035Z" fill="white"/>
<path d="M7.71811 5.73009L7.12842 5.97736C7.00928 5.7698 6.78898 5.62894 6.53123 5.62894C6.27422 5.62894 6.05542 5.76681 5.93179 5.97212L5.34434 5.72035C5.25742 5.68513 5.18849 5.69113 5.11056 5.74358C5.03263 5.79603 5.01465 5.8822 5.01465 5.97511V6.70867C5.01465 6.79859 5.02589 6.88101 5.09707 6.93271C5.16975 6.98442 5.2252 7.0009 5.31062 6.97692C5.54215 6.90499 5.82764 6.81807 5.99323 6.76787C6.12061 6.92148 6.31318 7.02038 6.53123 7.02038C6.73728 7.02038 6.92761 6.92822 7.05499 6.78211C7.22058 6.83306 7.5158 6.91998 7.75108 6.99116C7.835 7.01514 7.92792 7.00015 8.0021 6.9462C8.07178 6.89375 8.11974 6.81133 8.11974 6.72366V5.98635C8.11974 5.89194 8.06579 5.80577 7.98636 5.75332C7.90993 5.70237 7.80278 5.69338 7.71811 5.73009Z" fill="white"/>
<path d="M23.4871 3.42152V2.62277L12.2776 2.63851V3.42077L13.0824 3.42752H13.0876L13.0674 7.80192V7.80342C13.0674 7.82664 13.0082 7.85212 12.9752 7.88134L11.0076 9.63245L8.55214 6.60829L6.49981 9.28178L4.42201 6.40972C3.43518 7.08784 2.0812 8.70257 1.70356 12.2962C1.70356 12.2962 1.70281 12.3097 1.70206 12.3134C1.69456 12.3861 1.68707 12.4581 1.68108 12.5322C1.68033 12.5435 1.67883 12.554 1.67883 12.5645C1.67808 12.5749 1.67658 12.5847 1.67583 12.5967L0.513672 13.0605L1.72004 16.0772L2.2483 15.8666C1.8654 15.668 1.6039 15.2784 1.6009 14.8408C1.6009 14.7239 1.6009 14.61 1.6024 14.4954C1.63312 15.0281 2.07071 15.48 2.60646 15.48H2.60721C3.16469 15.48 3.6862 14.9959 3.6862 14.4377C3.68545 13.9342 3.68395 13.4629 3.70043 13.0298C3.72741 12.3584 3.75289 11.9111 3.92223 11.4015C3.97018 11.2592 3.98367 11.1678 4.04961 11.0366L5.64711 10.4694L7.00933 13.878L6.58223 14.0496L5.40434 11.1063L4.35757 11.5244C4.10506 12.4236 4.09756 13.5228 4.10281 14.8371C4.10281 14.9435 4.30961 15.2762 4.36206 15.3728V23.5124C4.36206 24.0684 4.82288 24.4993 5.37586 24.4993C5.93184 24.4993 6.39041 24.1089 6.39041 23.4802H6.65716C6.65716 24.1096 7.17193 24.4993 7.72791 24.4993C8.28239 24.4993 8.79865 24.0714 8.79865 23.5162L8.7994 15.3736C9.02644 15.0004 9.02644 14.5628 9.02719 14.0953V10.3608L10.1204 11.717C10.295 11.929 10.5543 12.0617 10.827 12.0819C10.8525 12.0857 10.8735 12.0871 10.8997 12.0871C11.1447 12.0871 11.3807 12.004 11.5643 11.8384L12.4492 11.0599L13.0861 11.0531L13.0854 17.2805H12.2866V18.0785H13.0854V24.2018L22.6764 24.2033L22.6771 18.08H23.4759V17.2813H22.6771L22.6779 11.0516L23.4759 11.0501L23.4871 10.2506L22.6974 10.2491L22.6891 3.42902H22.6831L23.4871 3.42152ZM19.4874 20.6389H16.2766V19.0054H19.4874V20.6389ZM16.2774 14.0593V12.4805H19.4881V14.0593H16.2774ZM19.4874 6.79561H16.2766V5.16439H19.4874V6.79561Z" fill="white"/>
</svg>
