<svg width="20" height="20" viewBox="0 0 20 20" fill="none" xmlns="http://www.w3.org/2000/svg">
<path d="M1.66699 15.8333C1.66699 17.25 2.75033 18.3333 4.16699 18.3333H15.8337C17.2503 18.3333 18.3337 17.25 18.3337 15.8333V9.16666H1.66699V15.8333ZM15.8337 3.33332H14.167V2.49999C14.167 1.99999 13.8337 1.66666 13.3337 1.66666C12.8337 1.66666 12.5003 1.99999 12.5003 2.49999V3.33332H7.50032V2.49999C7.50032 1.99999 7.16699 1.66666 6.66699 1.66666C6.16699 1.66666 5.83366 1.99999 5.83366 2.49999V3.33332H4.16699C2.75033 3.33332 1.66699 4.41666 1.66699 5.83332V7.49999H18.3337V5.83332C18.3337 4.41666 17.2503 3.33332 15.8337 3.33332Z" fill="black" fill-opacity="0.5"/>
</svg>
