<svg width="24" height="25" viewBox="0 0 24 25" fill="none" xmlns="http://www.w3.org/2000/svg">
<path d="M2.08416 3.2512C2.22155 2.86044 2.6497 2.65503 3.04047 2.79242L3.34187 2.89838C3.95839 3.11511 4.48203 3.29919 4.89411 3.50139C5.33474 3.71759 5.71259 3.98393 5.99677 4.39979C6.27875 4.81243 6.39517 5.26515 6.4489 5.76153C6.47295 5.98373 6.48564 6.22967 6.49233 6.5H17.1305C18.8155 6.5 20.3323 6.5 20.7762 7.07708C21.2202 7.65417 21.0466 8.52369 20.6995 10.2627L20.1997 12.6875C19.8846 14.2164 19.727 14.9808 19.1753 15.4304C18.6236 15.88 17.8431 15.88 16.2821 15.88H10.9792C8.19028 15.88 6.79583 15.88 5.92943 14.9662C5.06302 14.0523 4.99979 13.0816 4.99979 10.14V7.53832C4.99979 6.79837 4.99877 6.30316 4.95761 5.92295C4.91828 5.5596 4.84858 5.37818 4.75832 5.24609C4.67026 5.11723 4.53659 4.9968 4.23336 4.84802C3.91052 4.68961 3.47177 4.53406 2.80416 4.29934L2.54295 4.2075C2.15218 4.07012 1.94678 3.64197 2.08416 3.2512Z" fill="black"/>
<path d="M7.5 18.5C8.32843 18.5 9 19.1716 9 20C9 20.8284 8.32843 21.5 7.5 21.5C6.67157 21.5 6 20.8284 6 20C6 19.1716 6.67157 18.5 7.5 18.5Z" fill="black"/>
<path d="M16.5 18.5C17.3284 18.5 18 19.1715 18 20C18 20.8284 17.3284 21.5 16.5 21.5C15.6716 21.5 15 20.8284 15 20C15 19.1715 15.6716 18.5 16.5 18.5Z" fill="black"/>
</svg>
