<svg width="16" height="16" viewBox="0 0 16 16" fill="none" xmlns="http://www.w3.org/2000/svg">
<path d="M15.2882 0.773866C14.9628 0.448425 14.4351 0.448425 14.1097 0.773866L8.031 6.85252L1.95237 0.773866C1.62694 0.448425 1.0993 0.448425 0.773866 0.773866C0.448425 1.0993 0.448425 1.62694 0.773866 1.95237L6.8525 8.03102L0.773883 14.1096C0.448441 14.4351 0.448441 14.9627 0.773883 15.2882C1.09932 15.6136 1.62696 15.6136 1.95239 15.2882L8.031 9.20952L14.1097 15.2882C14.4351 15.6136 14.9628 15.6136 15.2882 15.2882C15.6136 14.9627 15.6136 14.4351 15.2882 14.1097L9.2095 8.03102L15.2882 1.95237C15.6136 1.62694 15.6136 1.0993 15.2882 0.773866Z" fill="white"/>
</svg>
