<svg width="24" height="25" viewBox="0 0 24 25" fill="none" xmlns="http://www.w3.org/2000/svg">
<path d="M9.59808 10.372C9.58408 10.372 9.56808 10.372 9.55408 10.37C9.54008 10.37 9.52408 10.368 9.51008 10.366C9.49608 10.364 9.48008 10.362 9.46608 10.36C9.45208 10.358 9.43608 10.356 9.42208 10.352C9.40808 10.35 9.39408 10.346 9.37808 10.342L9.33608 10.33C9.32208 10.326 9.30808 10.322 9.29408 10.316C9.28008 10.312 9.26608 10.306 9.25208 10.3C9.23808 10.294 9.22608 10.288 9.21208 10.282C9.19808 10.276 9.18608 10.27 9.17208 10.262C9.16008 10.256 9.14608 10.248 9.13408 10.24C9.12208 10.232 9.10808 10.224 9.09608 10.216C9.08408 10.208 9.07208 10.2 9.06008 10.19C9.04808 10.182 9.03608 10.172 9.02408 10.162C9.01208 10.152 9.00208 10.144 8.99008 10.134C8.98008 10.124 8.96808 10.114 8.95808 10.104C8.94808 10.094 8.93808 10.082 8.92808 10.072C8.91808 10.062 8.90808 10.05 8.90008 10.038C8.89008 10.026 8.88208 10.014 8.87208 10.004C8.86408 9.99195 8.85408 9.97995 8.84608 9.96795C8.83808 9.95595 8.83008 9.94395 8.82208 9.92995C8.81408 9.91795 8.80808 9.90395 8.80008 9.89195C8.79408 9.87995 8.78608 9.86595 8.78008 9.85195C8.77408 9.83795 8.76808 9.82595 8.76208 9.81195C8.75608 9.79795 8.75208 9.78395 8.74608 9.77195C8.74208 9.75795 8.73608 9.74395 8.73208 9.72995L8.72008 9.68795C8.71608 9.67395 8.71408 9.65995 8.71008 9.64395C8.70808 9.62995 8.70408 9.61595 8.70208 9.59995C8.70008 9.58595 8.69808 9.56995 8.69608 9.55595C8.69408 9.54195 8.69408 9.52595 8.69208 9.51195C8.69208 9.49795 8.69008 9.48195 8.69008 9.46795C8.69008 9.45395 8.69008 9.43795 8.69208 9.42395C8.69208 9.40995 8.69408 9.39395 8.69608 9.37995C8.69808 9.36595 8.70008 9.34995 8.70208 9.33595C8.70408 9.32195 8.70608 9.30795 8.71008 9.29195C8.71408 9.27795 8.71608 9.26395 8.72008 9.24995L8.73208 9.20795C8.73608 9.19395 8.74208 9.17995 8.74608 9.16595C8.75008 9.15195 8.75608 9.13795 8.76208 9.12395C8.76808 9.10995 8.77408 9.09595 8.78008 9.08395C8.78608 9.06995 8.79408 9.05795 8.80008 9.04395C8.80608 9.03195 8.81408 9.01795 8.82208 9.00595C8.83008 8.99395 8.83808 8.97995 8.84608 8.96795C8.85408 8.95595 8.86208 8.94395 8.87208 8.93195C8.88008 8.91995 8.89008 8.90795 8.90008 8.89795C8.91008 8.88595 8.92008 8.87595 8.92808 8.86395C8.93808 8.85395 8.94808 8.84195 8.95808 8.83195C8.96808 8.82195 8.98008 8.81195 8.99008 8.80195C9.00008 8.79195 9.01208 8.78195 9.02408 8.77395C9.03608 8.76395 9.04808 8.75595 9.06008 8.74595C9.07208 8.73795 9.08408 8.72795 9.09608 8.71995C9.10808 8.71195 9.12008 8.70395 9.13408 8.69595C9.14608 8.68795 9.16008 8.68195 9.17208 8.67395C9.18408 8.66795 9.19808 8.65995 9.21208 8.65395C9.22608 8.64795 9.23808 8.64195 9.25208 8.63595C9.26608 8.62995 9.28008 8.62595 9.29408 8.61995C9.30808 8.61595 9.32208 8.60995 9.33608 8.60595L9.37808 8.59395C9.39208 8.58995 9.40608 8.58795 9.42208 8.58395C9.43608 8.58195 9.45208 8.57795 9.46608 8.57595C9.48008 8.57395 9.49608 8.57195 9.51008 8.56995C9.52408 8.56795 9.54008 8.56795 9.55408 8.56595C9.58408 8.56395 9.61408 8.56395 9.64208 8.56595C9.65608 8.56595 9.67208 8.56795 9.68608 8.56995C9.70008 8.57195 9.71608 8.57395 9.73008 8.57595C9.74408 8.57795 9.76008 8.57995 9.77408 8.58395C9.78808 8.58595 9.80208 8.58995 9.81808 8.59395L9.86008 8.60595C9.87408 8.60995 9.88808 8.61595 9.90208 8.61995C9.91608 8.62395 9.93008 8.62995 9.94208 8.63595C9.95608 8.64195 9.97008 8.64795 9.98208 8.65395C9.99608 8.65995 10.0081 8.66595 10.0221 8.67395C10.0341 8.67995 10.0481 8.68795 10.0601 8.69595C10.0721 8.70395 10.0841 8.71195 10.0981 8.71995C10.1101 8.72795 10.1221 8.73595 10.1341 8.74595C10.1461 8.75395 10.1581 8.76395 10.1701 8.77395C10.1821 8.78395 10.1921 8.79395 10.2041 8.80195C10.2141 8.81195 10.2261 8.82195 10.2361 8.83195C10.2461 8.84195 10.2561 8.85395 10.2661 8.86395C10.2761 8.87395 10.2861 8.88595 10.2961 8.89795C10.3061 8.90995 10.3141 8.91995 10.3241 8.93195C10.3321 8.94395 10.3421 8.95595 10.3501 8.96795C10.3581 8.97995 10.3661 8.99195 10.3741 9.00595C10.3821 9.01795 10.3881 9.03195 10.3961 9.04395C10.4021 9.05595 10.4101 9.06995 10.4161 9.08395C10.4221 9.09795 10.4281 9.10995 10.4341 9.12395C10.4401 9.13795 10.4441 9.15195 10.4501 9.16595C10.4541 9.17995 10.4601 9.19395 10.4641 9.20795L10.4761 9.24995C10.4801 9.26395 10.4821 9.27795 10.4861 9.29195C10.4881 9.30595 10.4921 9.32195 10.4941 9.33595C10.4961 9.34995 10.4981 9.36595 10.5001 9.37995C10.5021 9.39395 10.5021 9.40995 10.5041 9.42395C10.5041 9.43795 10.5061 9.45395 10.5061 9.46795C10.5061 9.48195 10.5061 9.49795 10.5041 9.51195C10.5041 9.52595 10.5021 9.54195 10.5001 9.55595C10.4981 9.56995 10.4961 9.58595 10.4941 9.59995C10.4921 9.61395 10.4901 9.62995 10.4861 9.64395C10.4841 9.65795 10.4801 9.67195 10.4761 9.68795L10.4641 9.72995C10.4601 9.74395 10.4561 9.75795 10.4501 9.77195C10.4461 9.78595 10.4401 9.79995 10.4341 9.81195C10.4281 9.82595 10.4221 9.83995 10.4161 9.85195C10.4101 9.86595 10.4041 9.87795 10.3961 9.89195C10.3901 9.90595 10.3821 9.91795 10.3741 9.92995C10.3661 9.94195 10.3581 9.95595 10.3501 9.96795C10.3421 9.97995 10.3341 9.99195 10.3241 10.004C10.3161 10.016 10.3061 10.028 10.2961 10.038C10.2861 10.05 10.2761 10.06 10.2661 10.072C10.2561 10.084 10.2461 10.094 10.2361 10.104C10.2261 10.114 10.2141 10.124 10.2041 10.134C10.1941 10.144 10.1821 10.154 10.1701 10.162C10.1581 10.172 10.1461 10.18 10.1341 10.19C10.1221 10.198 10.1101 10.208 10.0981 10.216C10.0861 10.224 10.0741 10.232 10.0601 10.24C10.0481 10.248 10.0341 10.254 10.0221 10.262C10.0081 10.268 9.99608 10.276 9.98208 10.282C9.96808 10.288 9.95608 10.294 9.94208 10.3C9.92808 10.306 9.91408 10.31 9.90208 10.316C9.88808 10.32 9.87408 10.326 9.86008 10.33L9.81808 10.342C9.80408 10.346 9.79008 10.348 9.77408 10.352C9.76008 10.354 9.74408 10.358 9.73008 10.36C9.71608 10.362 9.70008 10.364 9.68608 10.366C9.67208 10.368 9.65608 10.368 9.64208 10.37C9.62808 10.372 9.61208 10.372 9.59808 10.372ZM8.63208 14.124H15.2181V14.924H8.63208V14.124Z" fill="black"/>
<path d="M9.602 10.38C10.1013 10.38 10.506 9.97529 10.506 9.47602C10.506 8.97676 10.1013 8.57202 9.602 8.57202C9.10273 8.57202 8.698 8.97676 8.698 9.47602C8.698 9.97529 9.10273 10.38 9.602 10.38Z" fill="black"/>
<path d="M8.63208 16.1561H15.2181V16.9561H8.63208V16.1561ZM8.63208 12.0901H15.2181V12.8901H8.63208V12.0901Z" fill="black"/>
<path d="M12 2.604C6.478 2.604 2 7.082 2 12.604C2 18.126 6.478 22.604 12 22.604C17.522 22.604 22 18.126 22 12.604C22 7.082 17.522 2.604 12 2.604ZM16.616 18.494C16.616 18.714 16.436 18.894 16.216 18.894H7.806C7.586 18.894 7.406 18.714 7.406 18.494V6.748C7.406 6.528 7.586 6.348 7.806 6.348L12.59 6.352V9.678C12.59 10.014 12.866 10.29 13.202 10.29H16.628L16.616 18.494ZM16.628 9.364H13.516V6.354L16.626 9.356V9.364H16.628Z" fill="black"/>
</svg>
