<svg width="21" height="21" viewBox="0 0 21 21" fill="none" xmlns="http://www.w3.org/2000/svg">
<path d="M10.9616 14.2551C10.8432 14.3846 10.6758 14.4583 10.5003 14.4583C10.3248 14.4583 10.1575 14.3846 10.0391 14.2551L6.70573 10.6092C6.47281 10.3545 6.49051 9.95917 6.74526 9.72625C7.00002 9.49333 7.39535 9.511 7.62826 9.76575L9.87533 12.2235V3C9.87533 2.65483 10.1552 2.375 10.5003 2.375C10.8455 2.375 11.1253 2.65483 11.1253 3V12.2235L13.3724 9.76575C13.6053 9.511 14.0007 9.49333 14.2554 9.72625C14.5102 9.95917 14.5278 10.3545 14.2949 10.6092L10.9616 14.2551Z" fill="#1C274C"/>
<path d="M3.625 13C3.625 12.6548 3.34518 12.375 3 12.375C2.65483 12.375 2.375 12.6548 2.375 13V13.0458C2.37498 14.1854 2.37497 15.104 2.4721 15.8265C2.57295 16.5766 2.78869 17.2081 3.29029 17.7097C3.79189 18.2113 4.42345 18.4271 5.17354 18.5279C5.89602 18.625 6.81462 18.625 7.95428 18.625H13.0458C14.1854 18.625 15.104 18.625 15.8265 18.5279C16.5766 18.4271 17.2081 18.2113 17.7097 17.7097C18.2113 17.2081 18.4271 16.5766 18.5279 15.8265C18.625 15.104 18.625 14.1854 18.625 13.0458V13C18.625 12.6548 18.3452 12.375 18 12.375C17.6548 12.375 17.375 12.6548 17.375 13C17.375 14.1962 17.3737 15.0304 17.2891 15.6599C17.2068 16.2714 17.0565 16.5952 16.8258 16.8258C16.5952 17.0565 16.2714 17.2068 15.6599 17.2891C15.0304 17.3737 14.1962 17.375 13 17.375H8C6.80383 17.375 5.96956 17.3737 5.3401 17.2891C4.72863 17.2068 4.40481 17.0565 4.17418 16.8258C3.94354 16.5952 3.79317 16.2714 3.71096 15.6599C3.62633 15.0304 3.625 14.1962 3.625 13Z" fill="#1C274C"/>
</svg>
