<svg width="24" height="25" viewBox="0 0 24 25" fill="none" xmlns="http://www.w3.org/2000/svg">
<path d="M21 22.5H3C2.59 22.5 2.25 22.16 2.25 21.75C2.25 21.34 2.59 21 3 21H21C21.41 21 21.75 21.34 21.75 21.75C21.75 22.16 21.41 22.5 21 22.5Z" fill="#292D32"/>
<path d="M19.0206 3.98162C17.0806 2.04162 15.1806 1.99162 13.1906 3.98162L11.9806 5.19162C11.8806 5.29162 11.8406 5.45162 11.8806 5.59162C12.6406 8.24162 14.7606 10.3616 17.4106 11.1216C17.4506 11.1316 17.4906 11.1416 17.5306 11.1416C17.6406 11.1416 17.7406 11.1016 17.8206 11.0216L19.0206 9.81162C20.0106 8.83162 20.4906 7.88162 20.4906 6.92162C20.5006 5.93162 20.0206 4.97162 19.0206 3.98162Z" fill="#292D32"/>
<path d="M15.6103 12.0309C15.3203 11.8909 15.0403 11.7509 14.7703 11.5909C14.5503 11.4609 14.3403 11.3209 14.1303 11.1709C13.9603 11.0609 13.7603 10.9009 13.5703 10.7409C13.5503 10.7309 13.4803 10.6709 13.4003 10.5909C13.0703 10.3109 12.7003 9.95086 12.3703 9.55086C12.3403 9.53086 12.2903 9.46086 12.2203 9.37086C12.1203 9.25086 11.9503 9.05086 11.8003 8.82086C11.6803 8.67086 11.5403 8.45086 11.4103 8.23086C11.2503 7.96086 11.1103 7.69086 10.9703 7.41086C10.9491 7.36547 10.9286 7.3203 10.9088 7.2754C10.7612 6.94208 10.3265 6.84463 10.0688 7.10239L4.34032 12.8309C4.21032 12.9609 4.09032 13.2109 4.06032 13.3809L3.52032 17.2109C3.42032 17.8909 3.61032 18.5309 4.03032 18.9609C4.39032 19.3109 4.89032 19.5009 5.43032 19.5009C5.55032 19.5009 5.67032 19.4909 5.79032 19.4709L9.63032 18.9309C9.81032 18.9009 10.0603 18.7809 10.1803 18.6509L15.9016 12.9296C16.1612 12.67 16.0633 12.2246 15.7257 12.0805C15.6877 12.0643 15.6492 12.0477 15.6103 12.0309Z" fill="#292D32"/>
</svg>
