<svg width="24" height="24" viewBox="0 0 24 24" fill="none" xmlns="http://www.w3.org/2000/svg">
<path fill-rule="evenodd" clip-rule="evenodd" d="M3.98998 16.854L2.67598 20.358C2.62552 20.4928 2.61495 20.6393 2.64552 20.78C2.67608 20.9207 2.7465 21.0496 2.84836 21.1514C2.95022 21.2532 3.07922 21.3234 3.21995 21.3539C3.36068 21.3843 3.50719 21.3736 3.64198 21.323L7.14498 20.009C7.54593 19.8588 7.91008 19.6245 8.21298 19.322L18.36 9.17496C18.36 9.17496 18.006 8.11396 16.946 7.05296C15.886 5.99296 14.824 5.63896 14.824 5.63896L4.67698 15.786C4.3744 16.0889 4.14015 16.453 3.98998 16.854ZM16.239 4.22396L17.622 2.84096C17.87 2.59296 18.201 2.43496 18.547 2.49296C19.034 2.57296 19.779 2.81496 20.481 3.51796C21.184 4.22096 21.426 4.96496 21.506 5.45196C21.564 5.79796 21.406 6.12896 21.158 6.37696L19.774 7.75996C19.774 7.75996 19.421 6.69996 18.36 5.63996C17.3 4.57796 16.239 4.22396 16.239 4.22396Z" fill="white"/>
</svg>
