<svg width="25" height="19" viewBox="0 0 25 19" fill="none" xmlns="http://www.w3.org/2000/svg">
<path fill-rule="evenodd" clip-rule="evenodd" d="M12.2494 0.745477C17.5917 0.821262 21.92 5.74424 24.1157 9.87703C24.1157 9.87703 23.3973 11.3382 22.6728 12.3501C22.3222 12.8397 21.9533 13.3166 21.5658 13.7779C21.2895 14.1063 21.004 14.4261 20.7079 14.7368C18.062 17.5156 14.2622 19.5886 10.2497 18.7838C5.792 17.8895 2.30135 13.9851 0.115723 9.87703C0.115723 9.87703 0.746252 8.37952 1.4748 7.36906C1.80117 6.91587 2.14372 6.4748 2.50244 6.04687C2.77728 5.71897 3.06223 5.39916 3.35678 5.08845C5.69449 2.62494 8.69404 0.728299 12.2494 0.745477ZM12.2307 2.7664C9.25485 2.75529 6.78023 4.41699 4.82246 6.47985C4.5562 6.76026 4.29954 7.04925 4.05097 7.34531C3.72408 7.73535 3.41185 8.13802 3.11427 8.5508C2.83942 8.93225 2.58024 9.46274 2.38118 9.85935C4.28742 13.1272 7.07276 16.0853 10.6473 16.8022C13.9631 17.4676 17.0576 15.6397 19.2443 13.3434C19.5116 13.063 19.7697 12.7735 20.0193 12.4769C20.373 12.0561 20.7095 11.6211 21.0293 11.174C21.3107 10.7809 21.6073 10.2812 21.8316 9.87703C19.8394 6.5137 16.4504 2.83208 12.2307 2.7664Z" fill="black"/>
<path fill-rule="evenodd" clip-rule="evenodd" d="M12.07 5.80884C14.3056 5.80884 16.1209 7.62413 16.1209 9.85928C16.1209 12.0949 14.3056 13.9097 12.07 13.9097C9.83483 13.9097 8.01953 12.0949 8.01953 9.85928C8.01953 7.62413 9.83483 5.80884 12.07 5.80884ZM12.07 7.83431C13.188 7.83431 14.0954 8.74171 14.0954 9.85928C14.0954 10.9774 13.188 11.8847 12.07 11.8847C10.9524 11.8847 10.045 10.9774 10.045 9.85928C10.045 8.74171 10.9524 7.83431 12.07 7.83431Z" fill="black"/>
</svg>
