<svg width="20" height="20" viewBox="0 0 20 20" fill="none" xmlns="http://www.w3.org/2000/svg">
<path d="M8.125 10C8.125 8.9645 8.9645 8.125 10 8.125C11.0355 8.125 11.875 8.9645 11.875 10C11.875 11.0355 11.0355 11.875 10 11.875C8.9645 11.875 8.125 11.0355 8.125 10Z" fill="white"/>
<path fill-rule="evenodd" clip-rule="evenodd" d="M1.6665 9.99992C1.6665 11.3661 2.02064 11.8262 2.72891 12.7463C4.14314 14.5836 6.51493 16.6666 9.99984 16.6666C13.4848 16.6666 15.8565 14.5836 17.2708 12.7463C17.979 11.8262 18.3332 11.3661 18.3332 9.99992C18.3332 8.63375 17.979 8.17369 17.2708 7.25353C15.8565 5.41622 13.4848 3.33325 9.99984 3.33325C6.51493 3.33325 4.14314 5.41622 2.72891 7.25353C2.02064 8.17369 1.6665 8.63375 1.6665 9.99992ZM9.99984 6.87492C8.27394 6.87492 6.87484 8.27403 6.87484 9.99992C6.87484 11.7258 8.27394 13.1249 9.99984 13.1249C11.7258 13.1249 13.1248 11.7258 13.1248 9.99992C13.1248 8.27403 11.7258 6.87492 9.99984 6.87492Z" fill="white"/>
</svg>
