<svg width="24" height="25" viewBox="0 0 24 25" fill="none" xmlns="http://www.w3.org/2000/svg">
<path d="M9.15632 1.88543H11.4577C12.3295 1.88543 13.056 2.50813 13.222 3.33062H14.5349C14.3585 1.78943 13.0456 0.588135 11.4577 0.588135H9.15632C7.56842 0.588135 6.25556 1.78943 6.0791 3.33062H7.39199C7.55805 2.50554 8.28453 1.88543 9.15632 1.88543Z" fill="black"/>
<path d="M3.30041 8.86487C5.16333 10.0688 7.65155 10.733 10.3084 10.733C12.9653 10.733 15.4509 10.0688 17.3164 8.86487C18.9925 7.78292 19.9655 6.38444 20.0848 4.90292C19.636 4.3399 18.9458 3.97925 18.1674 3.97925H14.5558H13.2585H7.35836H6.06106H2.44939C1.6736 3.97925 0.980847 4.3399 0.531982 4.90292C0.651334 6.38444 1.62431 7.78033 3.30041 8.86487Z" fill="black"/>
<path d="M9.4209 12.4636C9.4209 12.8684 9.75041 13.1978 10.1552 13.1978H10.4587C10.8635 13.1978 11.193 12.8684 11.193 12.4636V11.8772H9.4209V12.4636Z" fill="black"/>
<path d="M2.4493 16.709H13.3336V15.0562C13.3336 14.8565 13.4141 14.667 13.5568 14.5269L16.0398 12.0854C16.1799 11.9479 16.3667 11.8726 16.5613 11.8726H20.6141V7C20.5051 7.22314 20.3805 7.44368 20.2378 7.66162C19.68 8.51524 18.8835 9.27805 17.8768 9.9293C16.3122 10.9412 14.3533 11.6002 12.2309 11.8519V12.0698V12.6562C12.2309 13.6344 11.4369 14.4283 10.4588 14.4283H10.1552C9.17708 14.4283 8.38311 13.6344 8.38311 12.6562V12.0698V11.8519C6.26073 11.6028 4.30181 10.9412 2.73727 9.9293C1.73057 9.27805 0.934028 8.51524 0.37619 7.66162C0.233513 7.44368 0.108973 7.22314 0 7V14.2597C0 15.6115 1.09751 16.709 2.4493 16.709Z" fill="black"/>
<path d="M17.1139 12.269C16.7663 12.269 16.4264 12.4117 16.1799 12.6582L14.387 14.4641C14.1405 14.7132 14.0056 15.0401 14.0056 15.3904V16.5139V16.8382V17.1625V23.0963C14.0056 23.1586 14.0108 23.2209 14.0186 23.2805C14.1068 23.9188 14.6569 24.4117 15.3211 24.4117H22.6845C23.4084 24.4117 24 23.8228 24 23.0963V13.5819C24 12.9463 23.5485 12.4169 22.9492 12.295C22.8636 12.2768 22.7753 12.269 22.6871 12.269H21.2627H20.9384H20.614H17.1139ZM21.2627 13.5663H22.6845C22.6949 13.5663 22.7027 13.5741 22.7027 13.5845V23.0989C22.7027 23.1015 22.7027 23.1015 22.7027 23.1041C22.7001 23.1119 22.6949 23.1171 22.6871 23.1171C22.6871 23.1171 22.6871 23.1171 22.6845 23.1171H15.3211C15.3107 23.1171 15.3029 23.1093 15.3029 23.0989V17.1625V16.8381V16.5138V15.6576H16.2551C16.8493 15.6576 17.3319 15.175 17.3319 14.5809V13.5663H20.614H20.9384H21.2627Z" fill="black"/>
<path d="M19.4595 16.5164H16.634C16.3953 16.5164 16.1878 16.6461 16.0736 16.8381C16.0165 16.9341 15.9854 17.043 15.9854 17.1624V17.165C15.9854 17.523 16.2759 17.8137 16.634 17.8137H21.3743C21.7324 17.8137 22.023 17.523 22.023 17.165C22.023 16.8069 21.7324 16.5164 21.3743 16.5164H20.0589H19.4595Z" fill="black"/>
<path d="M21.3743 20.603H16.634C16.2759 20.603 15.9854 20.8936 15.9854 21.2517C15.9854 21.6097 16.2759 21.9003 16.634 21.9003H21.3743C21.7324 21.9003 22.023 21.6097 22.023 21.2517C22.023 20.8936 21.7324 20.603 21.3743 20.603Z" fill="black"/>
<path d="M21.3743 18.561H16.634C16.2759 18.561 15.9854 18.8517 15.9854 19.2097C15.9854 19.5678 16.2759 19.8583 16.634 19.8583H21.3743C21.7324 19.8583 22.023 19.5678 22.023 19.2097C22.023 18.8517 21.7324 18.561 21.3743 18.561Z" fill="black"/>
</svg>
