<svg width="24" height="24" viewBox="0 0 24 24" fill="none" xmlns="http://www.w3.org/2000/svg">
<path d="M7.06602 4.47173L0.426174 11.0554L0.370664 11.1069C0.148498 11.3272 0.0192388 11.6177 9.53674e-07 11.961L0.00109959 12.0764C0.0172162 12.3483 0.121139 12.6081 0.325929 12.8409L0.403411 12.9209L7.06602 19.5283C7.55875 20.0169 8.35543 20.0169 8.84816 19.5283C9.34383 19.0368 9.34383 18.2377 8.8482 17.7462L4.24784 13.1835L22.7372 13.184C23.4334 13.184 24 12.6222 24 11.9265C24 11.2308 23.4334 10.6689 22.7372 10.6689L4.39629 10.6685L8.84816 6.25391C9.34383 5.76239 9.34383 4.96326 8.84816 4.47173C8.35543 3.98314 7.55875 3.98314 7.06602 4.47173Z" fill="white"/>
</svg>
