<svg width="21" height="15" viewBox="0 0 21 15" fill="none" xmlns="http://www.w3.org/2000/svg">
<path d="M6.18277 0.824918L0.372902 6.66239L0.324331 6.70807C0.129936 6.90341 0.0168343 7.16103 0 7.4654L0.000961304 7.56773C0.0150642 7.80883 0.105997 8.03918 0.285187 8.24558L0.352985 8.31649L6.18277 14.1751C6.6139 14.6083 7.311 14.6083 7.74214 14.1751C8.17585 13.7393 8.17585 13.0307 7.74217 12.5949L3.71686 8.54939L19.895 8.54979C20.5042 8.54979 21 8.05164 21 7.43478C21 6.81791 20.5042 6.31976 19.895 6.31976L3.84675 6.31936L7.74214 2.40511C8.17585 1.9693 8.17585 1.26073 7.74214 0.824918C7.311 0.391694 6.6139 0.391694 6.18277 0.824918Z" fill="black" fill-opacity="0.8"/>
</svg>
