<svg width="24" height="17" viewBox="0 0 24 17" fill="none" xmlns="http://www.w3.org/2000/svg">
<path d="M7.06602 0.971918L0.426174 7.55553L0.370665 7.60705C0.148499 7.82736 0.0192394 8.1179 0 8.46119L0.00109863 8.57659C0.0172157 8.84851 0.12114 9.1083 0.325928 9.34109L0.403412 9.42106L7.06602 16.0285C7.55875 16.5171 8.35543 16.5171 8.84816 16.0285C9.34383 15.537 9.34383 14.7378 8.8482 14.2464L4.24784 9.68373L22.7372 9.68418C23.4334 9.68418 24 9.12236 24 8.42665C24 7.73093 23.4334 7.16911 22.7372 7.16911L4.39629 7.16866L8.84816 2.75409C9.34383 2.26257 9.34383 1.46344 8.84816 0.971918C8.35543 0.483319 7.55875 0.483319 7.06602 0.971918Z" fill="white"/>
</svg>
