<svg width="25" height="25" viewBox="0 0 25 25" fill="none" xmlns="http://www.w3.org/2000/svg">
<path d="M20.7188 17.2813H19.0711C18.9586 17.2813 18.8532 17.3305 18.7828 17.4172C18.6188 17.6164 18.443 17.8086 18.2578 17.9914C17.5006 18.7494 16.6036 19.3536 15.6164 19.7703C14.5938 20.2023 13.4946 20.4239 12.3844 20.4219C11.2618 20.4219 10.1743 20.2016 9.15238 19.7703C8.16526 19.3536 7.26825 18.7494 6.51097 17.9914C5.75233 17.2359 5.14742 16.3405 4.72972 15.3547C4.29613 14.3328 4.07816 13.2477 4.07816 12.125C4.07816 11.0023 4.29847 9.91719 4.72972 8.89531C5.14691 7.9086 5.74691 7.02031 6.51097 6.25859C7.27503 5.49688 8.16331 4.89688 9.15238 4.47969C10.1743 4.04844 11.2618 3.82813 12.3844 3.82813C13.5071 3.82813 14.5946 4.04609 15.6164 4.47969C16.6055 4.89688 17.4938 5.49688 18.2578 6.25859C18.443 6.44375 18.6164 6.63594 18.7828 6.83281C18.8532 6.91953 18.961 6.96875 19.0711 6.96875H20.7188C20.8664 6.96875 20.9578 6.80469 20.8758 6.68047C19.0782 3.88672 15.9328 2.0375 12.3586 2.04688C6.743 2.06094 2.24066 6.61953 2.29691 12.2281C2.35316 17.7477 6.84847 22.2031 12.3844 22.2031C15.9493 22.2031 19.0805 20.3563 20.8758 17.5695C20.9555 17.4453 20.8664 17.2813 20.7188 17.2813ZM22.8024 11.9773L19.4766 9.35235C19.3524 9.25391 19.1719 9.34297 19.1719 9.5V11.2813H11.8125C11.7094 11.2813 11.625 11.3656 11.625 11.4688V12.7813C11.625 12.8844 11.7094 12.9688 11.8125 12.9688H19.1719V14.75C19.1719 14.907 19.3547 14.9961 19.4766 14.8977L22.8024 12.2727C22.8248 12.2551 22.8429 12.2327 22.8554 12.2071C22.8678 12.1815 22.8743 12.1535 22.8743 12.125C22.8743 12.0965 22.8678 12.0685 22.8554 12.0429C22.8429 12.0173 22.8248 11.9949 22.8024 11.9773Z" fill="white"/>
</svg>
