<svg width="24" height="25" viewBox="0 0 24 25" fill="none" xmlns="http://www.w3.org/2000/svg">
<path d="M16 8.5V14.5M12 10.5V14.5M8 12.5V14.5M21 20.5L17.6757 18.8378C17.4237 18.7118 17.2977 18.6488 17.1656 18.6044C17.0484 18.565 16.9277 18.5365 16.8052 18.5193C16.6672 18.5 16.5263 18.5 16.2446 18.5H6.2C5.07989 18.5 4.51984 18.5 4.09202 18.282C3.71569 18.0903 3.40973 17.7843 3.21799 17.408C3 16.9802 3 16.4201 3 15.3V7.7C3 6.57989 3 6.01984 3.21799 5.59202C3.40973 5.21569 3.71569 4.90973 4.09202 4.71799C4.51984 4.5 5.0799 4.5 6.2 4.5H17.8C18.9201 4.5 19.4802 4.5 19.908 4.71799C20.2843 4.90973 20.5903 5.21569 20.782 5.59202C21 6.01984 21 6.5799 21 7.7V20.5Z" stroke="white" stroke-width="2" stroke-linecap="round" stroke-linejoin="round"/>
</svg>
