<svg width="37" height="38" viewBox="0 0 37 38" fill="none" xmlns="http://www.w3.org/2000/svg">
<path fill-rule="evenodd" clip-rule="evenodd" d="M9.73281 19.7137C9.55843 14.8253 13.2734 10.7138 18.039 10.5208C22.8048 10.7138 26.5197 14.8253 26.3454 19.7137C26.3454 21.7441 28.4963 23.722 28.5594 25.757C28.5594 25.7859 28.5594 25.8145 28.5594 25.8434C28.6059 27.1472 27.6149 28.2436 26.3438 28.2946H21.5459C21.5503 29.2936 21.1831 30.2569 20.5193 30.9879C19.8809 31.6989 18.9815 32.1035 18.039 32.1035C17.0966 32.1035 16.1974 31.6989 15.559 30.9879C14.895 30.2569 14.5278 29.2936 14.5323 28.2946H9.73281C8.46173 28.2436 7.47066 27.1472 7.5172 25.8434C7.5172 25.8145 7.5172 25.7859 7.5172 25.757C7.58184 23.7282 9.73281 21.7456 9.73281 19.7137Z" stroke="black" stroke-width="2" stroke-linecap="round" stroke-linejoin="round"/>
<path d="M14.5322 27.1384C13.8937 27.1384 13.376 27.6561 13.376 28.2947C13.376 28.9333 13.8937 29.4509 14.5322 29.4509V27.1384ZM21.5458 29.4509C22.1844 29.4509 22.7021 28.9333 22.7021 28.2947C22.7021 27.6561 22.1844 27.1384 21.5458 27.1384V29.4509ZM19.5421 8.59375C20.1807 8.59375 20.6984 8.07607 20.6984 7.4375C20.6984 6.79893 20.1807 6.28125 19.5421 6.28125V8.59375ZM16.5359 6.28125C15.8973 6.28125 15.3797 6.79893 15.3797 7.4375C15.3797 8.07607 15.8973 8.59375 16.5359 8.59375V6.28125ZM14.5322 29.4509H21.5458V27.1384H14.5322V29.4509ZM19.5421 6.28125H16.5359V8.59375H19.5421V6.28125Z" fill="black"/>
</svg>
