<svg width="18" height="17" viewBox="0 0 18 17" fill="none" xmlns="http://www.w3.org/2000/svg">
<path fill-rule="evenodd" clip-rule="evenodd" d="M8.7071 0.79289C9.0976 1.18342 9.0976 1.81658 8.7071 2.20711L3.41421 7.5H17C17.5523 7.5 18 7.9477 18 8.5C18 9.0523 17.5523 9.5 17 9.5H3.41421L8.7071 14.7929C9.0976 15.1834 9.0976 15.8166 8.7071 16.2071C8.3166 16.5976 7.6834 16.5976 7.2929 16.2071L0.29289 9.2071C0.10536 9.0196 0 8.7652 0 8.5C0 8.2348 0.10536 7.9804 0.29289 7.7929L7.2929 0.79289C7.6834 0.40237 8.3166 0.40237 8.7071 0.79289Z" fill="black"/>
</svg>
