<svg width="41" height="41" viewBox="0 0 41 41" fill="none" xmlns="http://www.w3.org/2000/svg">
<path d="M37.0416 20.125C37.0416 10.9417 29.5583 3.45834 20.3749 3.45834C11.1916 3.45834 3.70825 10.9417 3.70825 20.125C3.70825 24.9583 5.79159 29.3083 9.09159 32.3583C9.09159 32.375 9.09158 32.375 9.07492 32.3917C9.24158 32.5583 9.44159 32.6917 9.60825 32.8417C9.70825 32.925 9.79159 33.0083 9.89159 33.075C10.1916 33.325 10.5249 33.5583 10.8416 33.7917C10.9583 33.875 11.0583 33.9417 11.1749 34.025C11.4916 34.2417 11.8249 34.4417 12.1749 34.625C12.2916 34.6917 12.4249 34.775 12.5416 34.8417C12.8749 35.025 13.2249 35.1917 13.5916 35.3417C13.7249 35.4083 13.8583 35.475 13.9916 35.525C14.3583 35.675 14.7249 35.8083 15.0916 35.925C15.2249 35.975 15.3583 36.025 15.4916 36.0583C15.8916 36.175 16.2916 36.275 16.6916 36.375C16.8083 36.4083 16.9249 36.4417 17.0583 36.4583C17.5249 36.5583 17.9916 36.625 18.4749 36.675C18.5416 36.675 18.6083 36.6917 18.6749 36.7083C19.2416 36.7583 19.8083 36.7917 20.3749 36.7917C20.9416 36.7917 21.5083 36.7583 22.0583 36.7083C22.1249 36.7083 22.1916 36.6917 22.2583 36.675C22.7416 36.625 23.2083 36.5583 23.6749 36.4583C23.7916 36.4417 23.9083 36.3917 24.0416 36.375C24.4416 36.275 24.8583 36.1917 25.2416 36.0583C25.3749 36.0083 25.5083 35.9583 25.6416 35.925C26.0083 35.7917 26.3916 35.675 26.7416 35.525C26.8749 35.475 27.0083 35.4083 27.1416 35.3417C27.4916 35.1917 27.8416 35.025 28.1916 34.8417C28.3249 34.775 28.4416 34.6917 28.5583 34.625C28.8916 34.425 29.2249 34.2417 29.5583 34.025C29.6749 33.9583 29.7749 33.875 29.8916 33.7917C30.2249 33.5583 30.5416 33.325 30.8416 33.075C30.9416 32.9917 31.0249 32.9083 31.1249 32.8417C31.3083 32.6917 31.4916 32.5417 31.6583 32.3917C31.6583 32.375 31.6583 32.375 31.6416 32.3583C34.9583 29.3083 37.0416 24.9583 37.0416 20.125ZM28.6083 28.4083C24.0916 25.375 16.6916 25.375 12.1416 28.4083C11.4083 28.8917 10.8083 29.4583 10.3083 30.075C7.77492 27.5083 6.20825 23.9917 6.20825 20.125C6.20825 12.3083 12.5583 5.95834 20.3749 5.95834C28.1916 5.95834 34.5416 12.3083 34.5416 20.125C34.5416 23.9917 32.9749 27.5083 30.4416 30.075C29.9583 29.4583 29.3416 28.8917 28.6083 28.4083Z" fill="#385C4C"/>
<path d="M20.375 11.6745C16.925 11.6745 14.125 14.4745 14.125 17.9245C14.125 21.3078 16.775 24.0578 20.2917 24.1578C20.3417 24.1578 20.4083 24.1578 20.4417 24.1578C20.475 24.1578 20.525 24.1578 20.5583 24.1578C20.575 24.1578 20.5917 24.1578 20.5917 24.1578C23.9583 24.0412 26.6083 21.3078 26.625 17.9245C26.625 14.4745 23.825 11.6745 20.375 11.6745Z" fill="#385C4C"/>
</svg>
