<svg width="40" height="40" viewBox="0 0 40 40" fill="none" xmlns="http://www.w3.org/2000/svg">
<path d="M36.6666 18.9999C36.6666 9.81658 29.1833 2.33325 19.9999 2.33325C10.8166 2.33325 3.33325 9.81658 3.33325 18.9999C3.33325 23.8333 5.41659 28.1833 8.71659 31.2333C8.71659 31.2499 8.71658 31.2499 8.69992 31.2666C8.86658 31.4333 9.06659 31.5666 9.23325 31.7166C9.33325 31.7999 9.41659 31.8833 9.51659 31.9499C9.81659 32.1999 10.1499 32.4333 10.4666 32.6666C10.5833 32.7499 10.6833 32.8166 10.7999 32.8999C11.1166 33.1166 11.4499 33.3166 11.7999 33.4999C11.9166 33.5666 12.0499 33.6499 12.1666 33.7166C12.4999 33.8999 12.8499 34.0666 13.2166 34.2166C13.3499 34.2832 13.4833 34.3499 13.6166 34.3999C13.9833 34.5499 14.3499 34.6833 14.7166 34.7999C14.8499 34.8499 14.9833 34.8999 15.1166 34.9333C15.5166 35.0499 15.9166 35.1499 16.3166 35.2499C16.4333 35.2833 16.5499 35.3166 16.6833 35.3332C17.1499 35.4333 17.6166 35.4999 18.0999 35.5499C18.1666 35.5499 18.2333 35.5666 18.2999 35.5833C18.8666 35.6333 19.4333 35.6666 19.9999 35.6666C20.5666 35.6666 21.1333 35.6333 21.6833 35.5833C21.7499 35.5833 21.8166 35.5666 21.8833 35.5499C22.3666 35.4999 22.8333 35.4333 23.2999 35.3332C23.4166 35.3166 23.5333 35.2666 23.6666 35.2499C24.0666 35.1499 24.4833 35.0666 24.8666 34.9333C24.9999 34.8833 25.1333 34.8333 25.2666 34.7999C25.6333 34.6666 26.0166 34.5499 26.3666 34.3999C26.4999 34.3499 26.6333 34.2832 26.7666 34.2166C27.1166 34.0666 27.4666 33.8999 27.8166 33.7166C27.9499 33.6499 28.0666 33.5666 28.1833 33.4999C28.5166 33.2999 28.8499 33.1166 29.1833 32.8999C29.2999 32.8333 29.3999 32.7499 29.5166 32.6666C29.8499 32.4333 30.1666 32.1999 30.4666 31.9499C30.5666 31.8666 30.6499 31.7832 30.7499 31.7166C30.9333 31.5666 31.1166 31.4166 31.2833 31.2666C31.2833 31.2499 31.2833 31.2499 31.2666 31.2333C34.5833 28.1833 36.6666 23.8333 36.6666 18.9999ZM28.2333 27.2833C23.7166 24.2499 16.3166 24.2499 11.7666 27.2833C11.0333 27.7666 10.4333 28.3333 9.93325 28.9499C7.39992 26.3833 5.83325 22.8666 5.83325 18.9999C5.83325 11.1833 12.1833 4.83325 19.9999 4.83325C27.8166 4.83325 34.1666 11.1833 34.1666 18.9999C34.1666 22.8666 32.5999 26.3833 30.0666 28.9499C29.5833 28.3333 28.9666 27.7666 28.2333 27.2833Z" fill="#353B48"/>
<path d="M20 10.5496C16.55 10.5496 13.75 13.3496 13.75 16.7996C13.75 20.1829 16.4 22.9329 19.9167 23.0329C19.9667 23.0329 20.0333 23.0329 20.0667 23.0329C20.1 23.0329 20.15 23.0329 20.1833 23.0329C20.2 23.0329 20.2167 23.0329 20.2167 23.0329C23.5833 22.9162 26.2333 20.1829 26.25 16.7996C26.25 13.3496 23.45 10.5496 20 10.5496Z" fill="#353B48"/>
</svg>
