<svg width="25" height="25" viewBox="0 0 25 25" fill="none" xmlns="http://www.w3.org/2000/svg">
<path d="M16.7005 7.27484L21.6804 12.2125L21.722 12.2512C21.8886 12.4164 21.9856 12.6343 22 12.8918L21.9992 12.9783C21.9871 13.1823 21.9091 13.3771 21.7555 13.5517L21.6974 13.6117L16.7005 18.5673C16.3309 18.9337 15.7334 18.9337 15.3639 18.5673C14.9921 18.1986 14.9921 17.5993 15.3639 17.2307L18.8141 13.8087L4.94712 13.809C4.42493 13.809 4 13.3877 4 12.8659C4 12.3441 4.42493 11.9227 4.94711 11.9227L18.7028 11.9224L15.3639 8.61147C14.9921 8.24283 14.9921 7.64348 15.3639 7.27484C15.7334 6.90839 16.3309 6.90839 16.7005 7.27484Z" fill="white"/>
</svg>
