<svg width="24" height="25" viewBox="0 0 24 25" fill="none" xmlns="http://www.w3.org/2000/svg">
<path d="M23.4 16.1H22.8V12.0462C22.8 11.57 22.6088 11.1125 22.2713 10.775L18.525 7.02874C18.1875 6.69124 17.73 6.49999 17.2538 6.49999H15.6V4.69999C15.6 3.70624 14.7938 2.89999 13.8 2.89999H4.2C3.20625 2.89999 2.4 3.70624 2.4 4.69999V6.49999H0.3C0.135 6.49999 0 6.63499 0 6.79999V7.39999C0 7.56499 0.135 7.69999 0.3 7.69999H10.5C10.665 7.69999 10.8 7.83499 10.8 7.99999V8.59999C10.8 8.76499 10.665 8.89999 10.5 8.89999H1.5C1.335 8.89999 1.2 9.03499 1.2 9.19999V9.79999C1.2 9.96499 1.335 10.1 1.5 10.1H9.3C9.465 10.1 9.6 10.235 9.6 10.4V11C9.6 11.165 9.465 11.3 9.3 11.3H0.3C0.135 11.3 0 11.435 0 11.6V12.2C0 12.365 0.135 12.5 0.3 12.5H8.1C8.265 12.5 8.4 12.635 8.4 12.8V13.4C8.4 13.565 8.265 13.7 8.1 13.7H2.4V18.5C2.4 20.4875 4.0125 22.1 6 22.1C7.9875 22.1 9.6 20.4875 9.6 18.5H14.4C14.4 20.4875 16.0125 22.1 18 22.1C19.9875 22.1 21.6 20.4875 21.6 18.5H23.4C23.73 18.5 24 18.23 24 17.9V16.7C24 16.37 23.73 16.1 23.4 16.1ZM6 20.3C5.00625 20.3 4.2 19.4937 4.2 18.5C4.2 17.5062 5.00625 16.7 6 16.7C6.99375 16.7 7.8 17.5062 7.8 18.5C7.8 19.4937 6.99375 20.3 6 20.3ZM18 20.3C17.0063 20.3 16.2 19.4937 16.2 18.5C16.2 17.5062 17.0063 16.7 18 16.7C18.9938 16.7 19.8 17.5062 19.8 18.5C19.8 19.4937 18.9938 20.3 18 20.3ZM21 12.5H15.6V8.29999H17.2538L21 12.0462V12.5Z" fill="white"/>
</svg>
