<svg width="24" height="25" viewBox="0 0 24 25" fill="none" xmlns="http://www.w3.org/2000/svg">
<path d="M17.5777 4.93152L15.5777 3.88197C13.8221 2.96066 12.9443 2.5 12 2.5C11.0557 2.5 10.1779 2.96066 8.42231 3.88197L8.10059 4.0508L17.0236 9.14967L21.0403 7.14132C20.3941 6.40949 19.3515 5.86234 17.5777 4.93152Z" fill="white"/>
<path d="M21.7484 8.46436L17.75 10.4635V13.5C17.75 13.9142 17.4142 14.25 17 14.25C16.5858 14.25 16.25 13.9142 16.25 13.5V11.2135L12.75 12.9635V22.404C13.4679 22.2252 14.2848 21.7965 15.5777 21.118L17.5777 20.0685C19.7294 18.9393 20.8052 18.3748 21.4026 17.3603C22 16.3458 22 15.0833 22 12.5585V12.4415C22 10.5489 22 9.36559 21.7484 8.46436Z" fill="white"/>
<path d="M11.25 22.404V12.9635L2.25164 8.46436C2 9.36559 2 10.5489 2 12.4415V12.5585C2 15.0833 2 16.3458 2.5974 17.3603C3.19479 18.3748 4.27062 18.9393 6.42228 20.0685L8.42229 21.118C9.71524 21.7965 10.5321 22.2252 11.25 22.404Z" fill="white"/>
<path d="M2.95972 7.14131L12 11.6615L15.4112 9.95589L6.52459 4.87784L6.42232 4.93151C4.64858 5.86233 3.60593 6.40948 2.95972 7.14131Z" fill="white"/>
</svg>
