<svg width="24" height="25" viewBox="0 0 24 25" fill="none" xmlns="http://www.w3.org/2000/svg">
<g clip-path="url(#clip0_39_4497)">
<path d="M11.4375 21.1719H7.125V16.9531H8.8125V18.2656H9.75V16.9531H11.4375V21.1719ZM17.0625 21.1719H12.75V16.9531H14.4375V18.2656H15.375V16.9531H17.0625V21.1719ZM14.25 15.6406H9.9375V11.4219H11.625V12.7344H12.5625V11.4219H14.25V15.6406ZM0.1875 7.10938C0.1875 8.39169 1.08984 9.48144 2.25 9.88212V22.4844H0.1875V24.1719H23.8125V22.4844H21.75V9.88006C22.9584 9.51022 23.7843 8.43669 23.8125 7.10938V6.35938H0.1875V7.10938ZM6.12094 7.04806C6.12094 7.65528 6.75422 9.99837 9.09534 9.99837C11.1287 9.99837 12.0205 8.15947 12.0205 7.04806C12.0205 8.08419 12.7152 9.99622 14.9703 9.99622C17.0077 9.99622 17.9106 8.02756 17.9106 7.04806C17.9106 8.40041 18.8224 9.52456 20.0625 9.875V22.4844H3.9375V9.88381C5.19394 9.54369 6.12094 8.41203 6.12094 7.04806ZM20.8905 2.70312H20.9062V0.828125H3.1875V2.70312L0.1875 5.70312H23.8125L20.8905 2.70312Z" fill="black"/>
</g>
<defs>
<clipPath id="clip0_39_4497">
<rect width="24" height="24" fill="white" transform="translate(0 0.5)"/>
</clipPath>
</defs>
</svg>
