<svg width="24" height="24" viewBox="0 0 24 24" fill="none" xmlns="http://www.w3.org/2000/svg">
<g clip-path="url(#clip0_173_273)">
<path fill-rule="evenodd" clip-rule="evenodd" d="M5 9.5C5 7.01472 7.01472 5 9.5 5C11.9853 5 14 7.01472 14 9.5C14 11.9853 11.9853 14 9.5 14C7.01472 14 5 11.9853 5 9.5Z" fill="black"/>
<path d="M14.3675 12.0632C14.322 12.1494 14.3413 12.2569 14.4196 12.3149C15.0012 12.7454 15.7209 13 16.5 13C18.433 13 20 11.433 20 9.5C20 7.567 18.433 6 16.5 6C15.7209 6 15.0012 6.2546 14.4196 6.68513C14.3413 6.74313 14.322 6.85058 14.3675 6.93679C14.7714 7.70219 15 8.5744 15 9.5C15 10.4256 14.7714 11.2978 14.3675 12.0632Z" fill="black"/>
<path fill-rule="evenodd" clip-rule="evenodd" d="M4.64115 15.6993C5.87351 15.1644 7.49045 15 9.49995 15C11.5112 15 13.1293 15.1647 14.3621 15.7008C15.705 16.2847 16.5212 17.2793 16.949 18.6836C17.1495 19.3418 16.6551 20 15.9738 20H3.02801C2.34589 20 1.85045 19.3408 2.05157 18.6814C2.47994 17.2769 3.29738 16.2826 4.64115 15.6993Z" fill="black"/>
<path d="M14.8186 14.0364C14.4046 14.0621 14.3803 14.6183 14.7607 14.7837C15.8031 15.237 16.588 15.9043 17.1509 16.756C17.6128 17.4549 18.3301 18 19.1678 18H20.9484C21.6556 18 22.1716 17.2973 21.9228 16.6108C21.9085 16.5713 21.8936 16.5321 21.8782 16.4932C21.5358 15.6286 20.9489 14.9921 20.0799 14.5864C19.264 14.2055 18.2426 14.0483 17.0393 14.0008L17.0195 14H16.9998C16.291 14 15.5507 13.9909 14.8186 14.0364Z" fill="black"/>
</g>
<defs>
<clipPath id="clip0_173_273">
<rect width="24" height="24" fill="white"/>
</clipPath>
</defs>
</svg>
